# xmcd CD database file
# Copyright (C) 1993-1998 Ti Kan
# 
# Track frame offsets:
#     150
#     10747
#     19390
#     30065
#     40477
#     52377
#     61702
#     72060
#     82337
#     93922
#     105692
#     115610
#     125152
# 
# Disc length: 1810 seconds
# 
# Revision: 1
# Processed by: cddbd v1.4b41PL1 Copyright (c) Steve Scherf et al.
# Submitted via: DiscPlay 4.0.4
# 
DISCID=a907100d
DTITLE=Patsy Cline - Rockin' Side
DYEAR=1900
DGENRE=
TTITLE0=Gotta Lot Of Rhythm In My Soul
TTITLE1=Ain't No Wheels On This Ship
TTITLE2=I Don't Wanta
TTITLE3=I Love You, Honey
TTITLE4=Never No More
TTITLE5=Love, Love, Love Me Honey Do
TTITLE6=Walkin' Dream
TTITLE7=Too Many Secrets
TTITLE8=In Care Of The Blues
TTITLE9=Let The Teardrops Fall
TTITLE10=Turn The Cards Slowly
TTITLE11=I'm Moving Along
TTITLE12=Stop, Look And Listen
EXTD=
EXTT0=
EXTT1=
EXTT2=
EXTT3=
EXTT4=
EXTT5=
EXTT6=
EXTT7=
EXTT8=
EXTT9=
EXTT10=
EXTT11=
EXTT12=
PLAYORDER=
